GRF_marche0007
version=1
nRows=15
nColumns=19
inDegrees=yes
endheader
time	ground_force_vx	ground_force_vy	ground_force_vz	ground_force_px	ground_force_py	ground_force_pz	1_ground_force_vx	1_ground_force_vy	1_ground_force_vz	1_ground_force_px	1_ground_force_py	1_ground_force_pz	ground_torque_x	ground_torque_y	ground_torque_z	1_ground_torque_x	1_ground_torque_y	1_ground_torque_z
      1.03000000	     -0.12761753	     -1.10857609	      0.17111470	      0.58675179	      0.00819739	      0.27559511	      0.23706012	     -0.09203304	     -0.06497166	      0.51815142	      0.00292702	     -4.87377904	      0.31104553	     -0.09974268	     -0.65494342	     -0.02963327	     -1.28442139	     -0.16324625
      1.04000000	     -0.11736762	     -1.11914398	      0.15667035	      0.57567661	      0.00817568	      0.27876897	      0.24579057	     -0.03723987	     -0.03942869	      4.56639578	      0.01189269	     -5.84181672	      0.31710504	     -0.08627935	     -0.64843341	     -0.03145581	     -1.28408250	     -0.20290253
      1.05000000	     -0.11198124	     -1.12994121	      0.13869875	      0.56676913	      0.00815800	      0.28160956	      0.24364406	      0.05174032	     -0.00920872	     -5.29314354	     -0.01191978	     -4.76999444	      0.32318635	     -0.07127077	     -0.64427404	     -0.04126357	     -1.27212065	     -0.26007298
      1.06000000	     -0.11178334	     -1.13907991	      0.11739887	      0.56093975	      0.00814599	      0.28401116	      0.22962720	      0.17194202	      0.02387021	     -1.53388991	     -0.00021172	     -3.46843204	      0.32863092	     -0.05517834	     -0.64241693	     -0.05922282	     -1.25072754	     -0.33184110
      1.07000000	     -0.11660223	     -1.14457130	      0.09343704	      0.55890167	      0.00814100	      0.28586430	      0.20399592	      0.31654780	      0.05779886	     -0.76396062	      0.00459847	     -1.63251234	      0.33273449	     -0.03861675	     -0.64258532	     -0.08456577	     -1.22239376	     -0.41322143
      1.08000000	     -0.12577481	     -1.14457816	      0.06790610	      0.56116550	      0.00814398	      0.28706136	      0.16844579	      0.47470303	      0.09052851	     -0.58687346	      0.00663058	     -0.60798505	      0.33482140	     -0.02230204	     -0.64435319	     -0.11547962	     -1.18976119	     -0.49720290
      1.09000000	     -0.13821964	     -1.13761943	      0.04223917	      0.56806557	      0.00815560	      0.28751050	      0.12617795	      0.63175525	      0.12009808	     -0.54670811	      0.00744916	     -0.14291644	      0.33431544	     -0.00699780	     -0.64722176	     -0.14911101	     -1.15549185	     -0.57504096
      1.10000000	     -0.15257002	     -1.12273393	      0.01808626	      0.57980155	      0.00817623	      0.28714990	      0.08182010	      0.76997002	      0.14473057	     -0.53207239	      0.00781601	      0.07115382	      0.33080728	      0.00653446	     -0.65069536	     -0.18170098	     -1.12215000	     -0.63681811
      1.11000000	     -0.16734764	     -1.09960532	     -0.00283871	      0.59647819	      0.00820610	      0.28595414	      0.04119342	      0.86972289	      0.16291142	     -0.51762880	      0.00801627	      0.17717182	      0.32411413	      0.01758089	     -0.65435277	     -0.20884930	     -1.09207971	     -0.67224867
      1.12000000	     -0.18114778	     -1.06863865	     -0.01893012	      0.61812306	      0.00824524	      0.28392797	      0.01092451	      0.91112583	      0.17346955	     -0.49557795	      0.00816098	      0.23427466	      0.31432124	      0.02551949	     -0.65790071	     -0.22589601	     -1.06725708	     -0.67167315
      1.13000000	     -0.19280492	     -1.03097669	     -0.02886384	      0.64465738	      0.00829350	      0.28108722	     -0.00209063	      0.87602383	      0.17567351	     -0.45752824	      0.00830718	      0.26546827	      0.30179539	      0.02986484	     -0.66119526	     -0.22840298	     -1.04910889	     -0.62717823
      1.14000000	     -0.20151152	     -0.98845206	     -0.03174572	      0.67579350	      0.00835038	      0.27743276	      0.00864694	      0.75027719	      0.16933740	     -0.37899094	      0.00851459	      0.26846238	      0.28716679	      0.03031039	     -0.66422682	     -0.21271229	     -1.03831167	     -0.53377735
      1.15000000	     -0.20687256	     -0.94347733	     -0.02721236	      0.71084015	      0.00841471	      0.27293281	      0.04847417	      0.52620692	      0.15491793	     -0.14582242	      0.00893733	      0.15177560	      0.27128414	      0.02676356	     -0.66707826	     -0.17654732	     -1.03460414	     -0.39057533
      1.16000000	     -0.20889268	     -0.89887520	     -0.01546986	      0.74842694	      0.00848415	      0.26753950	      0.12074899	      0.20501983	      0.13357922	      1.24367051	      0.01011139	     -1.41868982	      0.25515137	      0.01936751	     -0.66987425	     -0.11960519	     -1.03665567	     -0.20181682
      1.17000000	     -0.20790570	     -0.85765284	      0.00273188	      0.78622831	      0.00855465	      0.26127010	      0.22604327	     -0.20103944	      0.10720394	      0.92564741	      0.00773960	     -2.42743731	      0.23985235	      0.00850426	     -0.67273933	     -0.04407151	     -1.04203367	      0.02230925
